<svg xmlns="http://www.w3.org/2000/svg" width="158" height="44" fill="none"><path fill="#fff" d="M58.321 19.894h3.038c-.044-.731-.219-1.36-.525-1.887a4.076 4.076 0 0 0-1.202-1.34 4.892 4.892 0 0 0-1.66-.812 6.938 6.938 0 0 0-1.923-.263c-.918 0-1.734.154-2.447.461a5.085 5.085 0 0 0-1.814 1.295 5.515 5.515 0 0 0-1.136 1.954 7.695 7.695 0 0 0-.372 2.436c0 .849.138 1.632.415 2.349.277.702.663 1.31 1.158 1.822a5.311 5.311 0 0 0 1.792 1.207 6.388 6.388 0 0 0 2.338.417c1.5 0 2.732-.395 3.693-1.185.962-.79 1.544-1.94 1.748-3.447h-2.993c-.102.703-.357 1.266-.765 1.69-.393.41-.962.615-1.705.615-.48 0-.888-.11-1.223-.329a2.595 2.595 0 0 1-.809-.834 4.238 4.238 0 0 1-.415-1.163 6.203 6.203 0 0 1-.131-1.252c0-.424.044-.848.131-1.273.087-.439.233-.834.437-1.185a2.66 2.66 0 0 1 .83-.878c.336-.234.75-.351 1.246-.351 1.326 0 2.09.651 2.294 1.953Zm3.982-8.319v15.673h3.103v-5.949c0-1.156.19-1.983.568-2.48.379-.512.99-.768 1.836-.768.743 0 1.26.234 1.551.702.291.454.437 1.149.437 2.085v6.41h3.103v-6.98c0-.703-.066-1.34-.197-1.91-.116-.585-.327-1.076-.633-1.47-.306-.41-.729-.725-1.268-.945-.524-.234-1.201-.35-2.032-.35-.582 0-1.18.153-1.792.46-.611.293-1.114.768-1.507 1.427h-.066v-5.905h-3.103Zm19.683 8.78H76.94c.014-.22.058-.468.13-.746.088-.278.227-.541.416-.79a2.38 2.38 0 0 1 .787-.615c.335-.175.75-.263 1.245-.263.758 0 1.319.205 1.683.614.378.41.64 1.01.786 1.8Zm-5.047 1.976h8.15a8.047 8.047 0 0 0-.218-2.524 6.083 6.083 0 0 0-1.005-2.152 4.822 4.822 0 0 0-1.749-1.492c-.713-.38-1.551-.57-2.513-.57-.859 0-1.646.153-2.36.46a5.507 5.507 0 0 0-1.813 1.273 5.45 5.45 0 0 0-1.18 1.888 6.645 6.645 0 0 0-.415 2.37c0 .878.13 1.683.393 2.415a5.626 5.626 0 0 0 1.158 1.888c.495.527 1.1.936 1.814 1.229.714.278 1.515.417 2.404.417 1.281 0 2.374-.293 3.277-.878s1.573-1.558 2.01-2.92h-2.73c-.103.352-.38.688-.831 1.01-.452.308-.99.461-1.617.461-.874 0-1.544-.226-2.01-.68-.467-.454-.722-1.186-.765-2.195Zm16.808-2.437h3.037c-.043-.731-.218-1.36-.524-1.887a4.076 4.076 0 0 0-1.202-1.34 4.892 4.892 0 0 0-1.66-.812 6.938 6.938 0 0 0-1.923-.263c-.918 0-1.734.154-2.448.461a5.085 5.085 0 0 0-1.813 1.295 5.515 5.515 0 0 0-1.137 1.954 7.695 7.695 0 0 0-.371 2.436c0 .849.138 1.632.415 2.349.277.702.663 1.31 1.158 1.822a5.311 5.311 0 0 0 1.792 1.207 6.388 6.388 0 0 0 2.338.417c1.5 0 2.731-.395 3.693-1.185.961-.79 1.544-1.94 1.748-3.447h-2.994c-.102.703-.356 1.266-.764 1.69-.394.41-.962.615-1.705.615-.48 0-.888-.11-1.224-.329a2.595 2.595 0 0 1-.808-.834 4.238 4.238 0 0 1-.415-1.163 6.195 6.195 0 0 1-.131-1.252c0-.424.043-.848.13-1.273a3.83 3.83 0 0 1 .438-1.185 2.65 2.65 0 0 1 .83-.878c.335-.234.75-.351 1.246-.351 1.325 0 2.09.651 2.294 1.953Zm4.266-8.319v15.673h3.103V23.34l1.202-1.163 3.103 5.07h3.758l-4.742-7.177 4.261-4.17h-3.671l-3.911 4.082v-8.407h-3.103Zm13.793 11.985h-2.95c.029.761.197 1.398.503 1.91.32.497.721.9 1.202 1.207a5.184 5.184 0 0 0 1.682.659 9.315 9.315 0 0 0 1.923.197c.641 0 1.267-.066 1.879-.198a4.628 4.628 0 0 0 1.661-.636 3.524 3.524 0 0 0 1.158-1.207c.306-.512.459-1.142.459-1.888 0-.527-.102-.966-.306-1.317a2.668 2.668 0 0 0-.808-.9 4.139 4.139 0 0 0-1.159-.593 12.258 12.258 0 0 0-1.311-.373 51.46 51.46 0 0 0-1.289-.285 12.87 12.87 0 0 1-1.136-.286 2.513 2.513 0 0 1-.787-.439.856.856 0 0 1-.306-.68c0-.234.059-.417.175-.549.11-.141.253-.254.415-.329.181-.075.373-.12.568-.132.188-.028.378-.043.568-.044.554 0 1.035.11 1.443.33.408.204.633.607.677 1.207h2.95c-.058-.702-.24-1.28-.546-1.734a3.406 3.406 0 0 0-1.115-1.12 4.686 4.686 0 0 0-1.551-.592 9.075 9.075 0 0 0-3.562 0 4.59 4.59 0 0 0-1.573.57c-.466.264-.845.63-1.136 1.098-.277.468-.416 1.068-.416 1.8 0 .497.102.922.306 1.273.204.337.474.622.809.856.335.22.714.402 1.136.549.44.132.885.25 1.333.351 1.107.234 1.967.468 2.578.702.627.235.94.586.94 1.054a1.2 1.2 0 0 1-.197.702 1.62 1.62 0 0 1-.502.44 2.67 2.67 0 0 1-.656.24 3.655 3.655 0 0 1-1.573-.043 2.453 2.453 0 0 1-.743-.33 2.111 2.111 0 0 1-.546-.592 1.86 1.86 0 0 1-.197-.878Zm19.057 3.688V15.899h-3.103v5.949c0 1.156-.189 1.99-.568 2.502-.379.498-.991.747-1.836.747-.742 0-1.26-.227-1.551-.68-.291-.47-.437-1.172-.437-2.108v-6.41h-3.103v6.98c0 .703.058 1.347.175 1.932.131.57.35 1.061.655 1.47.306.396.722.703 1.246.923.539.22 1.224.329 2.054.329a4.49 4.49 0 0 0 1.923-.439c.626-.293 1.136-.768 1.53-1.427h.065v1.58h2.95Zm1.568-11.349v11.349h3.103v-6.585c0-.556.08-1.003.241-1.34.16-.35.349-.614.568-.79.233-.19.466-.314.699-.373.248-.073.444-.11.59-.11.495 0 .867.088 1.114.264.263.16.445.38.547.658.116.278.182.586.196.922.015.322.022.652.022.988v6.366h3.103v-6.322c0-.351.022-.695.066-1.032.058-.35.16-.658.306-.922.16-.278.371-.497.633-.658.277-.176.634-.264 1.071-.264.437 0 .779.074 1.027.22.262.146.459.344.59.593.131.248.211.541.24.878.03.336.044.695.044 1.075v6.432h3.103v-7.595c0-.732-.102-1.354-.306-1.866-.204-.527-.488-.951-.852-1.273a3.336 3.336 0 0 0-1.311-.702 6.005 6.005 0 0 0-1.661-.22c-.787 0-1.471.19-2.054.57-.568.381-1.02.82-1.355 1.318-.306-.703-.757-1.193-1.355-1.47-.582-.279-1.23-.418-1.944-.418-.743 0-1.406.161-1.989.483a4.466 4.466 0 0 0-1.464 1.36h-.044V15.9h-2.928Z"/><path fill="url(#a)" d="m12.66 33.778-11.258-6.53v8.37l11.259 6.53 16.804-9.746v-8.37L12.66 33.778Z"/><path fill="url(#b)" d="m8.618 11.94 11.258-6.53-7.216-4.184-11.258 6.53v19.492l7.216 4.185V11.94Z"/><path fill="url(#c)" d="m19.877 5.41-7.216 4.186 16.805 9.746v13.059l7.216-4.185V15.157L19.876 5.411Z"/><defs><linearGradient id="a" x1="29.533" x2="1.422" y1="30.678" y2="30.678" gradientUnits="userSpaceOnUse"><stop stop-color="#00C2FF" stop-opacity="0"/><stop offset=".601" stop-color="#4B47FF"/><stop offset="1" stop-color="#4B47FF"/></linearGradient><linearGradient id="b" x1="5.639" x2="19.79" y1="29.772" y2="5.373" gradientUnits="userSpaceOnUse"><stop stop-color="#FF4ECD" stop-opacity="0"/><stop offset=".596" stop-color="#BD00FF"/><stop offset="1" stop-color="#B75BFF"/></linearGradient><linearGradient id="c" x1="19.825" x2="33.804" y1="5.385" y2="29.488" gradientUnits="userSpaceOnUse"><stop stop-color="#00FFB2" stop-opacity="0"/><stop offset=".606" stop-color="#00D1FF"/><stop offset="1" stop-color="#00D1FF"/></linearGradient></defs></svg>